<?xml version="1.0"?>
<svg xmlns="http://www.w3.org/2000/svg" height="512px" viewBox="0 0 496 496" width="512px" class=""><g><path d="m248 176c39.703125 0 72-32.296875 72-72s-32.296875-72-72-72-72 32.296875-72 72 32.296875 72 72 72zm0-128c30.871094 0 56 25.128906 56 56s-25.128906 56-56 56-56-25.128906-56-56 25.128906-56 56-56zm0 0" data-original="#000000" class="active-path" data-old_color="#0072FF" fill="#007AFF"/><path d="m224 57.054688v93.890624l70.425781-46.945312zm16 29.890624 25.574219 17.054688-25.574219 17.054688zm0 0" data-original="#000000" class="active-path" data-old_color="#0072FF" fill="#007AFF"/><path d="m224 256h-128v112h128zm-16 96h-96v-80h96zm0 0" data-original="#000000" class="active-path" data-old_color="#0072FF" fill="#007AFF"/><path d="m128 288h64v16h-64zm0 0" data-original="#000000" class="active-path" data-old_color="#0072FF" fill="#007AFF"/><path d="m128 320h64v16h-64zm0 0" data-original="#000000" class="active-path" data-old_color="#0072FF" fill="#007AFF"/><path d="m304 256h96v16h-96zm0 0" data-original="#000000" class="active-path" data-old_color="#0072FF" fill="#007AFF"/><path d="m304 288h96v16h-96zm0 0" data-original="#000000" class="active-path" data-old_color="#0072FF" fill="#007AFF"/><path d="m272 256h16v16h-16zm0 0" data-original="#000000" class="active-path" data-old_color="#0072FF" fill="#007AFF"/><path d="m272 288h16v16h-16zm0 0" data-original="#000000" class="active-path" data-old_color="#0072FF" fill="#007AFF"/><path d="m304 320h96v16h-96zm0 0" data-original="#000000" class="active-path" data-old_color="#0072FF" fill="#007AFF"/><path d="m304 352h96v16h-96zm0 0" data-original="#000000" class="active-path" data-old_color="#0072FF" fill="#007AFF"/><path d="m272 320h16v16h-16zm0 0" data-original="#000000" class="active-path" data-old_color="#0072FF" fill="#007AFF"/><path d="m272 352h16v16h-16zm0 0" data-original="#000000" class="active-path" data-old_color="#0072FF" fill="#007AFF"/><path d="m432 136v-56h-82.902344c-10.882812-45.792969-52.027344-80-101.097656-80s-90.214844 34.207031-101.097656 80h-82.902344v56h-64v320h200.664062c3.824219 22.671875 23.59375 40 47.335938 40s43.511719-17.328125 47.335938-40h200.664062v-320zm16 16v232h-16v-232zm-32-56v304h-110.0625c-18.691406 0-36.265625-6.960938-49.9375-19.527344v-172.878906c5.464844-.417969 10.800781-1.265625 16-2.503906v34.910156h128v-128h-48.40625c.207031-2.648438.40625-5.296875.40625-8s-.199219-5.351562-.40625-8zm-128 103.976562c30.351562-12.695312 53.351562-39.410156 61.097656-71.976562h34.902344v96h-96zm-40-183.976562c48.519531 0 88 39.480469 88 88s-39.480469 88-88 88-88-39.480469-88-88 39.480469-88 88-88zm-40 183.976562v24.023438h-96v-96h34.902344c7.746094 32.566406 30.746094 59.28125 61.097656 71.976562zm-128-103.976562h64.40625c-.207031 2.648438-.40625 5.296875-.40625 8s.199219 5.351562.40625 8h-48.40625v128h128v-34.902344c5.199219 1.230469 10.535156 2.078125 16 2.503906v172.871094c-13.671875 12.566406-31.246094 19.527344-49.9375 19.527344h-110.0625zm-16 288h-16v-232h16zm416 56h-200v8c0 17.648438-14.351562 32-32 32s-32-14.351562-32-32v-8h-200v-288h16v248h32v16h126.0625c21.449219 0 41.746094-7.457031 57.9375-21.144531 16.191406 13.6875 36.496094 21.144531 57.9375 21.144531h126.0625v-16h32v-248h16zm0 0" data-original="#000000" class="active-path" data-old_color="#0072FF" fill="#007AFF"/></g> </svg>
